<svg width="2086" height="2017" viewBox="0 0 2086 2017" fill="none" xmlns="http://www.w3.org/2000/svg">
<path d="M165.119 113.285C162.816 110.981 162.816 108.677 165.119 106.373L175.488 96.0046C177.792 93.7006 180.096 93.7006 182.399 96.0046L192.768 106.373C195.072 108.677 195.072 110.981 192.768 113.285L182.399 123.653C180.096 125.957 177.792 125.957 175.488 123.653L165.119 113.285Z" fill="#294773" fill-opacity="0.25"/>
<path d="M159.59 306.667C156.365 303.442 156.365 300.216 159.59 296.99L174.105 282.475C177.331 279.25 180.556 279.25 183.782 282.475L198.298 296.99C201.523 300.216 201.523 303.442 198.298 306.667L183.782 321.182C180.556 324.408 177.331 324.408 174.105 321.182L159.59 306.667Z" fill="#294773" fill-opacity="0.25"/>
<path d="M154.059 500.05C149.913 495.902 149.913 491.755 154.059 487.608L172.722 468.946C176.869 464.798 181.017 464.798 185.164 468.946L203.827 487.608C207.973 491.755 207.973 495.902 203.827 500.05L185.164 518.712C181.017 522.859 176.869 522.859 172.722 518.712L154.059 500.05Z" fill="#294773" fill-opacity="0.25"/>
<path d="M148.531 693.432C143.462 688.363 143.462 683.294 148.531 678.225L171.34 655.416C176.409 650.347 181.478 650.347 186.547 655.416L209.356 678.225C214.425 683.294 214.425 688.363 209.356 693.432L186.547 716.241C181.478 721.31 176.409 721.31 171.34 716.241L148.531 693.432Z" fill="#294773" fill-opacity="0.25"/>
<path d="M143 886.814C137.011 880.824 137.011 874.834 143 868.843L169.958 841.886C175.948 835.896 181.939 835.896 187.929 841.886L214.886 868.843C220.876 874.834 220.876 880.824 214.886 886.814L187.929 913.771C181.939 919.762 175.948 919.762 169.958 913.771L143 886.814Z" fill="#294773" fill-opacity="0.25"/>
<path d="M137.471 1080.2C130.558 1073.28 130.558 1066.37 137.471 1059.46L168.575 1028.36C175.488 1021.44 182.398 1021.44 189.311 1028.36L220.415 1059.46C227.328 1066.37 227.328 1073.28 220.415 1080.2L189.311 1111.3C182.398 1118.21 175.488 1118.21 168.575 1111.3L137.471 1080.2Z" fill="#294773" fill-opacity="0.25"/>
<path d="M131.942 1273.58C124.108 1265.75 124.108 1257.91 131.942 1250.08L167.193 1214.83C175.027 1206.99 182.86 1206.99 190.693 1214.83L225.945 1250.08C233.779 1257.91 233.779 1265.75 225.945 1273.58L190.693 1308.83C182.86 1316.66 175.027 1316.66 167.193 1308.83L131.942 1273.58Z" fill="#294773" fill-opacity="0.25"/>
<path d="M126.413 1466.96C117.657 1458.21 117.657 1449.45 126.413 1440.7L165.811 1401.3C174.567 1392.54 183.321 1392.54 192.076 1401.3L231.474 1440.7C240.23 1449.45 240.23 1458.21 231.474 1466.96L192.076 1506.36C183.321 1515.12 174.567 1515.12 165.811 1506.36L126.413 1466.96Z" fill="#294773" fill-opacity="0.25"/>
<path d="M120.882 1660.34C111.206 1650.67 111.206 1640.99 120.882 1631.31L164.427 1587.77C174.105 1578.09 183.781 1578.09 193.459 1587.77L237.004 1631.31C246.68 1640.99 246.68 1650.67 237.004 1660.34L193.459 1703.89C183.781 1713.57 174.105 1713.57 164.427 1703.89L120.882 1660.34Z" fill="#294773" fill-opacity="0.25"/>
<path d="M115.353 1853.73C104.754 1843.13 104.754 1832.53 115.353 1821.93L163.046 1774.24C173.644 1763.64 184.242 1763.64 194.84 1774.24L242.533 1821.93C253.132 1832.53 253.132 1843.13 242.533 1853.73L194.84 1901.42C184.242 1912.02 173.644 1912.02 163.046 1901.42L115.353 1853.73Z" fill="#294773" fill-opacity="0.25"/>
<path d="M357.119 113.285C354.815 110.981 354.815 108.677 357.119 106.373L367.487 96.0046C369.791 93.7006 372.095 93.7006 374.399 96.0046L384.767 106.373C387.071 108.677 387.071 110.981 384.767 113.285L374.399 123.653C372.095 125.957 369.791 125.957 367.487 123.653L357.119 113.285Z" fill="#294773" fill-opacity="0.25"/>
<path d="M351.59 306.667C348.364 303.442 348.364 300.216 351.59 296.99L366.105 282.475C369.331 279.25 372.556 279.25 375.782 282.475L390.297 296.99C393.523 300.216 393.523 303.442 390.297 306.667L375.782 321.182C372.556 324.408 369.331 324.408 366.105 321.182L351.59 306.667Z" fill="#294773" fill-opacity="0.25"/>
<path d="M346.06 500.05C341.913 495.902 341.913 491.755 346.06 487.608L364.722 468.946C368.87 464.798 373.017 464.798 377.164 468.946L395.826 487.608C399.974 491.755 399.974 495.902 395.826 500.05L377.164 518.712C373.017 522.859 368.87 522.859 364.722 518.712L346.06 500.05Z" fill="#294773" fill-opacity="0.25"/>
<path d="M340.53 693.432C335.462 688.363 335.462 683.294 340.53 678.225L363.34 655.416C368.409 650.347 373.478 650.347 378.546 655.416L401.356 678.225C406.425 683.294 406.425 688.363 401.356 693.432L378.546 716.241C373.478 721.31 368.409 721.31 363.34 716.241L340.53 693.432Z" fill="#294773" fill-opacity="0.25"/>
<path d="M335.001 886.814C329.011 880.824 329.011 874.834 335.001 868.843L361.958 841.886C367.948 835.896 373.939 835.896 379.929 841.886L406.886 868.843C412.876 874.834 412.876 880.824 406.886 886.814L379.929 913.771C373.939 919.762 367.948 919.762 361.958 913.771L335.001 886.814Z" fill="#294773" fill-opacity="0.25"/>
<path d="M329.471 1080.2C322.559 1073.28 322.559 1066.37 329.471 1059.46L360.575 1028.36C367.487 1021.44 374.399 1021.44 381.311 1028.36L412.415 1059.46C419.327 1066.37 419.327 1073.28 412.415 1080.2L381.311 1111.3C374.399 1118.21 367.487 1118.21 360.575 1111.3L329.471 1080.2Z" fill="#294773" fill-opacity="0.25"/>
<path d="M323.942 1273.58C316.108 1265.75 316.108 1257.91 323.942 1250.08L359.193 1214.83C367.026 1206.99 374.86 1206.99 382.694 1214.83L417.945 1250.08C425.778 1257.91 425.778 1265.75 417.945 1273.58L382.694 1308.83C374.86 1316.66 367.026 1316.66 359.193 1308.83L323.942 1273.58Z" fill="#294773" fill-opacity="0.25"/>
<path d="M318.412 1466.96C309.657 1458.21 309.657 1449.45 318.412 1440.7L357.81 1401.3C366.566 1392.54 375.321 1392.54 384.076 1401.3L423.474 1440.7C432.23 1449.45 432.23 1458.21 423.474 1466.96L384.076 1506.36C375.321 1515.12 366.566 1515.12 357.81 1506.36L318.412 1466.96Z" fill="#294773" fill-opacity="0.25"/>
<path d="M312.883 1660.34C303.206 1650.67 303.206 1640.99 312.883 1631.31L356.428 1587.77C366.105 1578.09 375.782 1578.09 385.459 1587.77L429.004 1631.31C438.681 1640.99 438.681 1650.67 429.004 1660.34L385.459 1703.89C375.782 1713.57 366.105 1713.57 356.428 1703.89L312.883 1660.34Z" fill="#294773" fill-opacity="0.25"/>
<path d="M307.353 1853.73C296.754 1843.13 296.754 1832.53 307.353 1821.93L355.045 1774.24C365.644 1763.64 376.242 1763.64 386.841 1774.24L434.533 1821.93C445.132 1832.53 445.132 1843.13 434.533 1853.73L386.841 1901.42C376.242 1912.02 365.644 1912.02 355.045 1901.42L307.353 1853.73Z" fill="#294773" fill-opacity="0.25"/>
<path d="M549.119 113.285C546.815 110.981 546.815 108.677 549.119 106.373L559.487 96.0046C561.791 93.7006 564.095 93.7006 566.399 96.0046L576.767 106.373C579.071 108.677 579.071 110.981 576.767 113.285L566.399 123.653C564.095 125.957 561.791 125.957 559.487 123.653L549.119 113.285Z" fill="#294773" fill-opacity="0.25"/>
<path d="M543.59 306.667C540.364 303.442 540.364 300.216 543.59 296.99L558.105 282.475C561.331 279.25 564.556 279.25 567.782 282.475L582.297 296.99C585.523 300.216 585.523 303.442 582.297 306.667L567.782 321.182C564.556 324.408 561.331 324.408 558.105 321.182L543.59 306.667Z" fill="#294773" fill-opacity="0.25"/>
<path d="M538.06 500.05C533.913 495.902 533.913 491.755 538.06 487.608L556.723 468.946C560.87 464.798 565.017 464.798 569.164 468.946L587.827 487.608C591.974 491.755 591.974 495.902 587.827 500.05L569.164 518.712C565.017 522.859 560.87 522.859 556.723 518.712L538.06 500.05Z" fill="#294773" fill-opacity="0.25"/>
<path d="M532.531 693.432C527.462 688.363 527.462 683.294 532.531 678.225L555.34 655.416C560.409 650.347 565.478 650.347 570.547 655.416L593.356 678.225C598.425 683.294 598.425 688.363 593.356 693.432L570.547 716.241C565.478 721.31 560.409 721.31 555.34 716.241L532.531 693.432Z" fill="#294773" fill-opacity="0.25"/>
<path d="M527.001 886.814C521.011 880.824 521.011 874.834 527.001 868.843L553.958 841.886C559.948 835.896 565.939 835.896 571.929 841.886L598.886 868.843C604.876 874.834 604.876 880.824 598.886 886.814L571.929 913.771C565.939 919.762 559.948 919.762 553.958 913.771L527.001 886.814Z" fill="#294773" fill-opacity="0.25"/>
<path d="M521.471 1080.2C514.559 1073.28 514.559 1066.37 521.471 1059.46L552.575 1028.36C559.487 1021.44 566.399 1021.44 573.311 1028.36L604.415 1059.46C611.327 1066.37 611.327 1073.28 604.415 1080.2L573.311 1111.3C566.399 1118.21 559.487 1118.21 552.575 1111.3L521.471 1080.2Z" fill="#294773" fill-opacity="0.25"/>
<path d="M515.942 1273.58C508.108 1265.75 508.108 1257.91 515.942 1250.08L551.193 1214.83C559.027 1206.99 566.86 1206.99 574.694 1214.83L609.945 1250.08C617.779 1257.91 617.779 1265.75 609.945 1273.58L574.694 1308.83C566.86 1316.66 559.027 1316.66 551.193 1308.83L515.942 1273.58Z" fill="#294773" fill-opacity="0.25"/>
<path d="M510.412 1466.96C501.657 1458.21 501.657 1449.45 510.412 1440.7L549.811 1401.3C558.566 1392.54 567.321 1392.54 576.076 1401.3L615.475 1440.7C624.23 1449.45 624.23 1458.21 615.475 1466.96L576.076 1506.36C567.321 1515.12 558.566 1515.12 549.811 1506.36L510.412 1466.96Z" fill="#294773" fill-opacity="0.25"/>
<path d="M504.882 1660.34C495.206 1650.67 495.206 1640.99 504.882 1631.31L548.428 1587.77C558.105 1578.09 567.782 1578.09 577.458 1587.77L621.004 1631.31C630.681 1640.99 630.681 1650.67 621.004 1660.34L577.458 1703.89C567.782 1713.57 558.105 1713.57 548.428 1703.89L504.882 1660.34Z" fill="#294773" fill-opacity="0.25"/>
<path d="M499.353 1853.73C488.755 1843.13 488.755 1832.53 499.353 1821.93L547.046 1774.24C557.645 1763.64 568.243 1763.64 578.841 1774.24L626.534 1821.93C637.133 1832.53 637.133 1843.13 626.534 1853.73L578.841 1901.42C568.243 1912.02 557.645 1912.02 547.046 1901.42L499.353 1853.73Z" fill="#294773" fill-opacity="0.25"/>
<path d="M741.119 113.285C738.815 110.981 738.815 108.677 741.119 106.373L751.487 96.0046C753.791 93.7006 756.095 93.7006 758.399 96.0046L768.767 106.373C771.071 108.677 771.071 110.981 768.767 113.285L758.399 123.653C756.095 125.957 753.791 125.957 751.487 123.653L741.119 113.285Z" fill="#294773" fill-opacity="0.25"/>
<path d="M735.59 306.667C732.364 303.442 732.364 300.216 735.59 296.99L750.105 282.475C753.331 279.25 756.556 279.25 759.782 282.475L774.297 296.99C777.523 300.216 777.523 303.442 774.297 306.667L759.782 321.182C756.556 324.408 753.331 324.408 750.105 321.182L735.59 306.667Z" fill="#294773" fill-opacity="0.25"/>
<path d="M730.06 500.05C725.913 495.902 725.913 491.755 730.06 487.608L748.723 468.946C752.87 464.798 757.017 464.798 761.164 468.946L779.827 487.608C783.974 491.755 783.974 495.902 779.827 500.05L761.164 518.712C757.017 522.859 752.87 522.859 748.723 518.712L730.06 500.05Z" fill="#294773" fill-opacity="0.25"/>
<path d="M724.531 693.432C719.462 688.363 719.462 683.294 724.531 678.225L747.34 655.416C752.409 650.347 757.478 650.347 762.547 655.416L785.356 678.225C790.425 683.294 790.425 688.363 785.356 693.432L762.547 716.241C757.478 721.31 752.409 721.31 747.34 716.241L724.531 693.432Z" fill="#294773" fill-opacity="0.25"/>
<path d="M719.001 886.814C713.011 880.824 713.011 874.834 719.001 868.843L745.958 841.886C751.948 835.896 757.939 835.896 763.929 841.886L790.886 868.843C796.876 874.834 796.876 880.824 790.886 886.814L763.929 913.771C757.939 919.762 751.948 919.762 745.958 913.771L719.001 886.814Z" fill="#294773" fill-opacity="0.25"/>
<path d="M713.472 1080.2C706.56 1073.28 706.56 1066.37 713.472 1059.46L744.576 1028.36C751.488 1021.44 758.4 1021.44 765.312 1028.36L796.416 1059.46C803.328 1066.37 803.328 1073.28 796.416 1080.2L765.312 1111.3C758.4 1118.21 751.488 1118.21 744.576 1111.3L713.472 1080.2Z" fill="#294773" fill-opacity="0.25"/>
<path d="M707.942 1273.58C700.108 1265.75 700.108 1257.91 707.942 1250.08L743.193 1214.83C751.027 1206.99 758.86 1206.99 766.694 1214.83L801.945 1250.08C809.779 1257.91 809.779 1265.75 801.945 1273.58L766.694 1308.83C758.86 1316.66 751.027 1316.66 743.193 1308.83L707.942 1273.58Z" fill="#294773" fill-opacity="0.25"/>
<path d="M702.412 1466.96C693.657 1458.21 693.657 1449.45 702.412 1440.7L741.81 1401.3C750.565 1392.54 759.321 1392.54 768.076 1401.3L807.474 1440.7C816.229 1449.45 816.229 1458.21 807.474 1466.96L768.076 1506.36C759.321 1515.12 750.565 1515.12 741.81 1506.36L702.412 1466.96Z" fill="#294773" fill-opacity="0.25"/>
<path d="M696.883 1660.34C687.206 1650.67 687.206 1640.99 696.883 1631.31L740.428 1587.77C750.105 1578.09 759.782 1578.09 769.459 1587.77L813.004 1631.31C822.681 1640.99 822.681 1650.67 813.004 1660.34L769.459 1703.89C759.782 1713.57 750.105 1713.57 740.428 1703.89L696.883 1660.34Z" fill="#294773" fill-opacity="0.25"/>
<path d="M691.353 1853.73C680.755 1843.13 680.755 1832.53 691.353 1821.93L739.046 1774.24C749.644 1763.64 760.243 1763.64 770.841 1774.24L818.534 1821.93C829.132 1832.53 829.132 1843.13 818.534 1853.73L770.841 1901.42C760.243 1912.02 749.644 1912.02 739.046 1901.42L691.353 1853.73Z" fill="#294773" fill-opacity="0.25"/>
<path d="M933.119 113.285C930.815 110.981 930.815 108.677 933.119 106.373L943.487 96.0046C945.791 93.7006 948.095 93.7006 950.399 96.0046L960.767 106.373C963.071 108.677 963.071 110.981 960.767 113.285L950.399 123.653C948.095 125.957 945.791 125.957 943.487 123.653L933.119 113.285Z" fill="#294773" fill-opacity="0.25"/>
<path d="M927.59 306.667C924.364 303.442 924.364 300.216 927.59 296.99L942.105 282.475C945.33 279.25 948.556 279.25 951.782 282.475L966.297 296.99C969.522 300.216 969.522 303.442 966.297 306.667L951.782 321.182C948.556 324.408 945.33 324.408 942.105 321.182L927.59 306.667Z" fill="#294773" fill-opacity="0.25"/>
<path d="M922.06 500.05C917.913 495.902 917.913 491.755 922.06 487.608L940.723 468.946C944.87 464.798 949.017 464.798 953.164 468.946L971.827 487.608C975.974 491.755 975.974 495.902 971.827 500.05L953.164 518.712C949.017 522.859 944.87 522.859 940.723 518.712L922.06 500.05Z" fill="#294773" fill-opacity="0.25"/>
<path d="M916.531 693.432C911.462 688.363 911.462 683.294 916.531 678.225L939.34 655.416C944.409 650.347 949.478 650.347 954.547 655.416L977.356 678.225C982.425 683.294 982.425 688.363 977.356 693.432L954.547 716.241C949.478 721.31 944.409 721.31 939.34 716.241L916.531 693.432Z" fill="#294773" fill-opacity="0.25"/>
<path d="M911.001 886.814C905.011 880.824 905.011 874.834 911.001 868.843L937.958 841.886C943.948 835.896 949.939 835.896 955.929 841.886L982.886 868.843C988.876 874.834 988.876 880.824 982.886 886.814L955.929 913.771C949.939 919.762 943.948 919.762 937.958 913.771L911.001 886.814Z" fill="#294773" fill-opacity="0.25"/>
<path d="M905.471 1080.2C898.559 1073.28 898.559 1066.37 905.471 1059.46L936.575 1028.36C943.487 1021.44 950.399 1021.44 957.311 1028.36L988.415 1059.46C995.327 1066.37 995.327 1073.28 988.415 1080.2L957.311 1111.3C950.399 1118.21 943.487 1118.21 936.575 1111.3L905.471 1080.2Z" fill="#294773" fill-opacity="0.25"/>
<path d="M899.942 1273.58C892.108 1265.75 892.108 1257.91 899.942 1250.08L935.193 1214.83C943.027 1206.99 950.86 1206.99 958.694 1214.83L993.945 1250.08C1001.78 1257.91 1001.78 1265.75 993.945 1273.58L958.694 1308.83C950.86 1316.66 943.027 1316.66 935.193 1308.83L899.942 1273.58Z" fill="#294773" fill-opacity="0.25"/>
<path d="M894.412 1466.96C885.657 1458.21 885.657 1449.45 894.412 1440.7L933.811 1401.3C942.566 1392.54 951.321 1392.54 960.076 1401.3L999.475 1440.7C1008.23 1449.45 1008.23 1458.21 999.475 1466.96L960.076 1506.36C951.321 1515.12 942.566 1515.12 933.811 1506.36L894.412 1466.96Z" fill="#294773" fill-opacity="0.25"/>
<path d="M888.883 1660.34C879.206 1650.67 879.206 1640.99 888.883 1631.31L932.428 1587.77C942.105 1578.09 951.782 1578.09 961.459 1587.77L1005 1631.31C1014.68 1640.99 1014.68 1650.67 1005 1660.34L961.459 1703.89C951.782 1713.57 942.105 1713.57 932.428 1703.89L888.883 1660.34Z" fill="#294773" fill-opacity="0.25"/>
<path d="M883.353 1853.73C872.754 1843.13 872.754 1832.53 883.353 1821.93L931.045 1774.24C941.644 1763.64 952.242 1763.64 962.841 1774.24L1010.53 1821.93C1021.13 1832.53 1021.13 1843.13 1010.53 1853.73L962.841 1901.42C952.242 1912.02 941.644 1912.02 931.045 1901.42L883.353 1853.73Z" fill="#294773" fill-opacity="0.25"/>
<path d="M1125.12 113.285C1122.82 110.981 1122.82 108.677 1125.12 106.373L1135.49 96.0046C1137.79 93.7006 1140.1 93.7006 1142.4 96.0046L1152.77 106.373C1155.07 108.677 1155.07 110.981 1152.77 113.285L1142.4 123.653C1140.1 125.957 1137.79 125.957 1135.49 123.653L1125.12 113.285Z" fill="#294773" fill-opacity="0.25"/>
<path d="M1119.59 306.667C1116.36 303.442 1116.36 300.216 1119.59 296.99L1134.11 282.475C1137.33 279.25 1140.56 279.25 1143.78 282.475L1158.3 296.99C1161.52 300.216 1161.52 303.442 1158.3 306.667L1143.78 321.182C1140.56 324.408 1137.33 324.408 1134.11 321.182L1119.59 306.667Z" fill="#294773" fill-opacity="0.25"/>
<path d="M1114.06 500.05C1109.91 495.902 1109.91 491.755 1114.06 487.608L1132.72 468.946C1136.87 464.798 1141.02 464.798 1145.16 468.946L1163.83 487.608C1167.97 491.755 1167.97 495.902 1163.83 500.05L1145.16 518.712C1141.02 522.859 1136.87 522.859 1132.72 518.712L1114.06 500.05Z" fill="#294773" fill-opacity="0.25"/>
<path d="M1108.53 693.432C1103.46 688.363 1103.46 683.294 1108.53 678.225L1131.34 655.416C1136.41 650.347 1141.48 650.347 1146.55 655.416L1169.36 678.225C1174.42 683.294 1174.42 688.363 1169.36 693.432L1146.55 716.241C1141.48 721.31 1136.41 721.31 1131.34 716.241L1108.53 693.432Z" fill="#294773" fill-opacity="0.25"/>
<path d="M1103 886.814C1097.01 880.824 1097.01 874.834 1103 868.843L1129.96 841.886C1135.95 835.896 1141.94 835.896 1147.93 841.886L1174.89 868.843C1180.88 874.834 1180.88 880.824 1174.89 886.814L1147.93 913.771C1141.94 919.762 1135.95 919.762 1129.96 913.771L1103 886.814Z" fill="#294773" fill-opacity="0.25"/>
<path d="M1097.47 1080.2C1090.56 1073.28 1090.56 1066.37 1097.47 1059.46L1128.58 1028.36C1135.49 1021.44 1142.4 1021.44 1149.31 1028.36L1180.42 1059.46C1187.33 1066.37 1187.33 1073.28 1180.42 1080.2L1149.31 1111.3C1142.4 1118.21 1135.49 1118.21 1128.58 1111.3L1097.47 1080.2Z" fill="#294773" fill-opacity="0.25"/>
<path d="M1091.94 1273.58C1084.11 1265.75 1084.11 1257.91 1091.94 1250.08L1127.19 1214.83C1135.03 1206.99 1142.86 1206.99 1150.69 1214.83L1185.94 1250.08C1193.78 1257.91 1193.78 1265.75 1185.94 1273.58L1150.69 1308.83C1142.86 1316.66 1135.03 1316.66 1127.19 1308.83L1091.94 1273.58Z" fill="#294773" fill-opacity="0.25"/>
<path d="M1086.41 1466.96C1077.66 1458.21 1077.66 1449.45 1086.41 1440.7L1125.81 1401.3C1134.57 1392.54 1143.32 1392.54 1152.08 1401.3L1191.47 1440.7C1200.23 1449.45 1200.23 1458.21 1191.47 1466.96L1152.08 1506.36C1143.32 1515.12 1134.57 1515.12 1125.81 1506.36L1086.41 1466.96Z" fill="#294773" fill-opacity="0.25"/>
<path d="M1080.88 1660.34C1071.21 1650.67 1071.21 1640.99 1080.88 1631.31L1124.43 1587.77C1134.1 1578.09 1143.78 1578.09 1153.46 1587.77L1197 1631.31C1206.68 1640.99 1206.68 1650.67 1197 1660.34L1153.46 1703.89C1143.78 1713.57 1134.1 1713.57 1124.43 1703.89L1080.88 1660.34Z" fill="#294773" fill-opacity="0.25"/>
<path d="M1075.35 1853.73C1064.75 1843.13 1064.75 1832.53 1075.35 1821.93L1123.05 1774.24C1133.64 1763.64 1144.24 1763.64 1154.84 1774.24L1202.53 1821.93C1213.13 1832.53 1213.13 1843.13 1202.53 1853.73L1154.84 1901.42C1144.24 1912.02 1133.64 1912.02 1123.05 1901.42L1075.35 1853.73Z" fill="#294773" fill-opacity="0.25"/>
<path d="M1317.12 113.285C1314.82 110.981 1314.82 108.677 1317.12 106.373L1327.49 96.0046C1329.79 93.7006 1332.1 93.7006 1334.4 96.0046L1344.77 106.373C1347.07 108.677 1347.07 110.981 1344.77 113.285L1334.4 123.653C1332.1 125.957 1329.79 125.957 1327.49 123.653L1317.12 113.285Z" fill="#294773" fill-opacity="0.25"/>
<path d="M1311.59 306.667C1308.36 303.442 1308.36 300.216 1311.59 296.99L1326.11 282.475C1329.33 279.25 1332.56 279.25 1335.78 282.475L1350.3 296.99C1353.52 300.216 1353.52 303.442 1350.3 306.667L1335.78 321.182C1332.56 324.408 1329.33 324.408 1326.11 321.182L1311.59 306.667Z" fill="#294773" fill-opacity="0.25"/>
<path d="M1306.06 500.05C1301.91 495.902 1301.91 491.755 1306.06 487.608L1324.72 468.946C1328.87 464.798 1333.02 464.798 1337.16 468.946L1355.83 487.608C1359.97 491.755 1359.97 495.902 1355.83 500.05L1337.16 518.712C1333.02 522.859 1328.87 522.859 1324.72 518.712L1306.06 500.05Z" fill="#294773" fill-opacity="0.25"/>
<path d="M1300.53 693.432C1295.46 688.363 1295.46 683.294 1300.53 678.225L1323.34 655.416C1328.41 650.347 1333.48 650.347 1338.55 655.416L1361.36 678.225C1366.43 683.294 1366.43 688.363 1361.36 693.432L1338.55 716.241C1333.48 721.31 1328.41 721.31 1323.34 716.241L1300.53 693.432Z" fill="#294773" fill-opacity="0.25"/>
<path d="M1295 886.814C1289.01 880.824 1289.01 874.834 1295 868.843L1321.96 841.886C1327.95 835.896 1333.94 835.896 1339.93 841.886L1366.89 868.843C1372.88 874.834 1372.88 880.824 1366.89 886.814L1339.93 913.771C1333.94 919.762 1327.95 919.762 1321.96 913.771L1295 886.814Z" fill="#294773" fill-opacity="0.25"/>
<path d="M1289.47 1080.2C1282.56 1073.28 1282.56 1066.37 1289.47 1059.46L1320.58 1028.36C1327.49 1021.44 1334.4 1021.44 1341.31 1028.36L1372.42 1059.46C1379.33 1066.37 1379.33 1073.28 1372.42 1080.2L1341.31 1111.3C1334.4 1118.21 1327.49 1118.21 1320.58 1111.3L1289.47 1080.2Z" fill="#294773" fill-opacity="0.25"/>
<path d="M1283.94 1273.58C1276.11 1265.75 1276.11 1257.91 1283.94 1250.08L1319.19 1214.83C1327.03 1206.99 1334.86 1206.99 1342.69 1214.83L1377.94 1250.08C1385.78 1257.91 1385.78 1265.75 1377.94 1273.58L1342.69 1308.83C1334.86 1316.66 1327.03 1316.66 1319.19 1308.83L1283.94 1273.58Z" fill="#294773" fill-opacity="0.25"/>
<path d="M1278.41 1466.96C1269.66 1458.21 1269.66 1449.45 1278.41 1440.7L1317.81 1401.3C1326.57 1392.54 1335.32 1392.54 1344.08 1401.3L1383.47 1440.7C1392.23 1449.45 1392.23 1458.21 1383.47 1466.96L1344.08 1506.36C1335.32 1515.12 1326.57 1515.12 1317.81 1506.36L1278.41 1466.96Z" fill="#294773" fill-opacity="0.25"/>
<path d="M1272.88 1660.34C1263.21 1650.67 1263.21 1640.99 1272.88 1631.31L1316.43 1587.77C1326.1 1578.09 1335.78 1578.09 1345.46 1587.77L1389 1631.31C1398.68 1640.99 1398.68 1650.67 1389 1660.34L1345.46 1703.89C1335.78 1713.57 1326.1 1713.57 1316.43 1703.89L1272.88 1660.34Z" fill="#294773" fill-opacity="0.25"/>
<path d="M1267.35 1853.73C1256.75 1843.13 1256.75 1832.53 1267.35 1821.93L1315.05 1774.24C1325.64 1763.64 1336.24 1763.64 1346.84 1774.24L1394.53 1821.93C1405.13 1832.53 1405.13 1843.13 1394.53 1853.73L1346.84 1901.42C1336.24 1912.02 1325.64 1912.02 1315.05 1901.42L1267.35 1853.73Z" fill="#294773" fill-opacity="0.25"/>
<path d="M1509.12 113.285C1506.82 110.981 1506.82 108.677 1509.12 106.373L1519.49 96.0046C1521.79 93.7006 1524.1 93.7006 1526.4 96.0046L1536.77 106.373C1539.07 108.677 1539.07 110.981 1536.77 113.285L1526.4 123.653C1524.1 125.957 1521.79 125.957 1519.49 123.653L1509.12 113.285Z" fill="#294773" fill-opacity="0.25"/>
<path d="M1503.59 306.667C1500.36 303.442 1500.36 300.216 1503.59 296.99L1518.1 282.475C1521.33 279.25 1524.56 279.25 1527.78 282.475L1542.3 296.99C1545.52 300.216 1545.52 303.442 1542.3 306.667L1527.78 321.182C1524.56 324.408 1521.33 324.408 1518.1 321.182L1503.59 306.667Z" fill="#294773" fill-opacity="0.25"/>
<path d="M1498.06 500.05C1493.91 495.902 1493.91 491.755 1498.06 487.608L1516.72 468.946C1520.87 464.798 1525.02 464.798 1529.16 468.946L1547.83 487.608C1551.97 491.755 1551.97 495.902 1547.83 500.05L1529.16 518.712C1525.02 522.859 1520.87 522.859 1516.72 518.712L1498.06 500.05Z" fill="#294773" fill-opacity="0.25"/>
<path d="M1492.53 693.432C1487.46 688.363 1487.46 683.294 1492.53 678.225L1515.34 655.416C1520.41 650.347 1525.48 650.347 1530.55 655.416L1553.36 678.225C1558.43 683.294 1558.43 688.363 1553.36 693.432L1530.55 716.241C1525.48 721.31 1520.41 721.31 1515.34 716.241L1492.53 693.432Z" fill="#294773" fill-opacity="0.25"/>
<path d="M1487 886.814C1481.01 880.824 1481.01 874.834 1487 868.843L1513.96 841.886C1519.95 835.896 1525.94 835.896 1531.93 841.886L1558.89 868.843C1564.88 874.834 1564.88 880.824 1558.89 886.814L1531.93 913.771C1525.94 919.762 1519.95 919.762 1513.96 913.771L1487 886.814Z" fill="#294773" fill-opacity="0.25"/>
<path d="M1481.47 1080.2C1474.56 1073.28 1474.56 1066.37 1481.47 1059.46L1512.58 1028.36C1519.49 1021.44 1526.4 1021.44 1533.31 1028.36L1564.42 1059.46C1571.33 1066.37 1571.33 1073.28 1564.42 1080.2L1533.31 1111.3C1526.4 1118.21 1519.49 1118.21 1512.58 1111.3L1481.47 1080.2Z" fill="#294773" fill-opacity="0.25"/>
<path d="M1475.94 1273.58C1468.11 1265.75 1468.11 1257.91 1475.94 1250.08L1511.19 1214.83C1519.03 1206.99 1526.86 1206.99 1534.69 1214.83L1569.95 1250.08C1577.78 1257.91 1577.78 1265.75 1569.95 1273.58L1534.69 1308.83C1526.86 1316.66 1519.03 1316.66 1511.19 1308.83L1475.94 1273.58Z" fill="#294773" fill-opacity="0.25"/>
<path d="M1470.41 1466.96C1461.66 1458.21 1461.66 1449.45 1470.41 1440.7L1509.81 1401.3C1518.57 1392.54 1527.32 1392.54 1536.08 1401.3L1575.47 1440.7C1584.23 1449.45 1584.23 1458.21 1575.47 1466.96L1536.08 1506.36C1527.32 1515.12 1518.57 1515.12 1509.81 1506.36L1470.41 1466.96Z" fill="#294773" fill-opacity="0.25"/>
<path d="M1464.88 1660.34C1455.21 1650.67 1455.21 1640.99 1464.88 1631.31L1508.43 1587.77C1518.11 1578.09 1527.78 1578.09 1537.46 1587.77L1581 1631.31C1590.68 1640.99 1590.68 1650.67 1581 1660.34L1537.46 1703.89C1527.78 1713.57 1518.11 1713.57 1508.43 1703.89L1464.88 1660.34Z" fill="#294773" fill-opacity="0.25"/>
<path d="M1459.35 1853.73C1448.75 1843.13 1448.75 1832.53 1459.35 1821.93L1507.05 1774.24C1517.64 1763.64 1528.24 1763.64 1538.84 1774.24L1586.53 1821.93C1597.13 1832.53 1597.13 1843.13 1586.53 1853.73L1538.84 1901.42C1528.24 1912.02 1517.64 1912.02 1507.05 1901.42L1459.35 1853.73Z" fill="#294773" fill-opacity="0.25"/>
<path d="M1701.12 113.285C1698.82 110.981 1698.82 108.677 1701.12 106.373L1711.49 96.0046C1713.79 93.7006 1716.1 93.7006 1718.4 96.0046L1728.77 106.373C1731.07 108.677 1731.07 110.981 1728.77 113.285L1718.4 123.653C1716.1 125.957 1713.79 125.957 1711.49 123.653L1701.12 113.285Z" fill="#294773" fill-opacity="0.25"/>
<path d="M1695.59 306.667C1692.36 303.442 1692.36 300.216 1695.59 296.99L1710.11 282.475C1713.33 279.25 1716.56 279.25 1719.78 282.475L1734.3 296.99C1737.52 300.216 1737.52 303.442 1734.3 306.667L1719.78 321.182C1716.56 324.408 1713.33 324.408 1710.11 321.182L1695.59 306.667Z" fill="#294773" fill-opacity="0.25"/>
<path d="M1690.06 500.05C1685.91 495.902 1685.91 491.755 1690.06 487.608L1708.72 468.946C1712.87 464.798 1717.02 464.798 1721.16 468.946L1739.83 487.608C1743.97 491.755 1743.97 495.902 1739.83 500.05L1721.16 518.712C1717.02 522.859 1712.87 522.859 1708.72 518.712L1690.06 500.05Z" fill="#294773" fill-opacity="0.25"/>
<path d="M1684.53 693.432C1679.46 688.363 1679.46 683.294 1684.53 678.225L1707.34 655.416C1712.41 650.347 1717.48 650.347 1722.55 655.416L1745.36 678.225C1750.43 683.294 1750.43 688.363 1745.36 693.432L1722.55 716.241C1717.48 721.31 1712.41 721.31 1707.34 716.241L1684.53 693.432Z" fill="#294773" fill-opacity="0.25"/>
<path d="M1679 886.814C1673.01 880.824 1673.01 874.834 1679 868.843L1705.96 841.886C1711.95 835.896 1717.94 835.896 1723.93 841.886L1750.89 868.843C1756.88 874.834 1756.88 880.824 1750.89 886.814L1723.93 913.771C1717.94 919.762 1711.95 919.762 1705.96 913.771L1679 886.814Z" fill="#294773" fill-opacity="0.25"/>
<path d="M1673.47 1080.2C1666.56 1073.28 1666.56 1066.37 1673.47 1059.46L1704.58 1028.36C1711.49 1021.44 1718.4 1021.44 1725.31 1028.36L1756.42 1059.46C1763.33 1066.37 1763.33 1073.28 1756.42 1080.2L1725.31 1111.3C1718.4 1118.21 1711.49 1118.21 1704.58 1111.3L1673.47 1080.2Z" fill="#294773" fill-opacity="0.25"/>
<path d="M1667.94 1273.58C1660.11 1265.75 1660.11 1257.91 1667.94 1250.08L1703.19 1214.83C1711.03 1206.99 1718.86 1206.99 1726.69 1214.83L1761.95 1250.08C1769.78 1257.91 1769.78 1265.75 1761.95 1273.58L1726.69 1308.83C1718.86 1316.66 1711.03 1316.66 1703.19 1308.83L1667.94 1273.58Z" fill="#294773" fill-opacity="0.25"/>
<path d="M1662.41 1466.96C1653.66 1458.21 1653.66 1449.45 1662.41 1440.7L1701.81 1401.3C1710.57 1392.54 1719.32 1392.54 1728.08 1401.3L1767.47 1440.7C1776.23 1449.45 1776.23 1458.21 1767.47 1466.96L1728.08 1506.36C1719.32 1515.12 1710.57 1515.12 1701.81 1506.36L1662.41 1466.96Z" fill="#294773" fill-opacity="0.25"/>
<path d="M1656.88 1660.34C1647.21 1650.67 1647.21 1640.99 1656.88 1631.31L1700.43 1587.77C1710.11 1578.09 1719.78 1578.09 1729.46 1587.77L1773 1631.31C1782.68 1640.99 1782.68 1650.67 1773 1660.34L1729.46 1703.89C1719.78 1713.57 1710.11 1713.57 1700.43 1703.89L1656.88 1660.34Z" fill="#294773" fill-opacity="0.25"/>
<path d="M1651.35 1853.73C1640.75 1843.13 1640.75 1832.53 1651.35 1821.93L1699.05 1774.24C1709.64 1763.64 1720.24 1763.64 1730.84 1774.24L1778.53 1821.93C1789.13 1832.53 1789.13 1843.13 1778.53 1853.73L1730.84 1901.42C1720.24 1912.02 1709.64 1912.02 1699.05 1901.42L1651.35 1853.73Z" fill="#294773" fill-opacity="0.25"/>
<path d="M1893.12 113.285C1890.82 110.981 1890.82 108.677 1893.12 106.373L1903.49 96.0046C1905.79 93.7006 1908.1 93.7006 1910.4 96.0046L1920.77 106.373C1923.07 108.677 1923.07 110.981 1920.77 113.285L1910.4 123.653C1908.1 125.957 1905.79 125.957 1903.49 123.653L1893.12 113.285Z" fill="#294773" fill-opacity="0.25"/>
<path d="M1887.59 306.667C1884.36 303.442 1884.36 300.216 1887.59 296.99L1902.1 282.475C1905.33 279.25 1908.56 279.25 1911.78 282.475L1926.3 296.99C1929.52 300.216 1929.52 303.442 1926.3 306.667L1911.78 321.182C1908.56 324.408 1905.33 324.408 1902.1 321.182L1887.59 306.667Z" fill="#294773" fill-opacity="0.25"/>
<path d="M1882.06 500.05C1877.91 495.902 1877.91 491.755 1882.06 487.608L1900.72 468.946C1904.87 464.798 1909.02 464.798 1913.16 468.946L1931.83 487.608C1935.97 491.755 1935.97 495.902 1931.83 500.05L1913.16 518.712C1909.02 522.859 1904.87 522.859 1900.72 518.712L1882.06 500.05Z" fill="#294773" fill-opacity="0.25"/>
<path d="M1876.53 693.432C1871.46 688.363 1871.46 683.294 1876.53 678.225L1899.34 655.416C1904.41 650.347 1909.48 650.347 1914.55 655.416L1937.36 678.225C1942.43 683.294 1942.43 688.363 1937.36 693.432L1914.55 716.241C1909.48 721.31 1904.41 721.31 1899.34 716.241L1876.53 693.432Z" fill="#294773" fill-opacity="0.25"/>
<path d="M1871 886.814C1865.01 880.824 1865.01 874.834 1871 868.843L1897.96 841.886C1903.95 835.896 1909.94 835.896 1915.93 841.886L1942.89 868.843C1948.88 874.834 1948.88 880.824 1942.89 886.814L1915.93 913.771C1909.94 919.762 1903.95 919.762 1897.96 913.771L1871 886.814Z" fill="#294773" fill-opacity="0.25"/>
<path d="M1865.47 1080.2C1858.56 1073.28 1858.56 1066.37 1865.47 1059.46L1896.58 1028.36C1903.49 1021.44 1910.4 1021.44 1917.31 1028.36L1948.42 1059.46C1955.33 1066.37 1955.33 1073.28 1948.42 1080.2L1917.31 1111.3C1910.4 1118.21 1903.49 1118.21 1896.58 1111.3L1865.47 1080.2Z" fill="#294773" fill-opacity="0.25"/>
<path d="M1859.94 1273.58C1852.11 1265.75 1852.11 1257.91 1859.94 1250.08L1895.19 1214.83C1903.03 1206.99 1910.86 1206.99 1918.69 1214.83L1953.95 1250.08C1961.78 1257.91 1961.78 1265.75 1953.95 1273.58L1918.69 1308.83C1910.86 1316.66 1903.03 1316.66 1895.19 1308.83L1859.94 1273.58Z" fill="#294773" fill-opacity="0.25"/>
<path d="M1854.41 1466.96C1845.66 1458.21 1845.66 1449.45 1854.41 1440.7L1893.81 1401.3C1902.57 1392.54 1911.32 1392.54 1920.08 1401.3L1959.47 1440.7C1968.23 1449.45 1968.23 1458.21 1959.47 1466.96L1920.08 1506.36C1911.32 1515.12 1902.57 1515.12 1893.81 1506.36L1854.41 1466.96Z" fill="#294773" fill-opacity="0.25"/>
<path d="M1848.88 1660.34C1839.21 1650.67 1839.21 1640.99 1848.88 1631.31L1892.43 1587.77C1902.11 1578.09 1911.78 1578.09 1921.46 1587.77L1965 1631.31C1974.68 1640.99 1974.68 1650.67 1965 1660.34L1921.46 1703.89C1911.78 1713.57 1902.11 1713.57 1892.43 1703.89L1848.88 1660.34Z" fill="#294773" fill-opacity="0.25"/>
<path d="M1843.35 1853.73C1832.75 1843.13 1832.75 1832.53 1843.35 1821.93L1891.05 1774.24C1901.64 1763.64 1912.24 1763.64 1922.84 1774.24L1970.53 1821.93C1981.13 1832.53 1981.13 1843.13 1970.53 1853.73L1922.84 1901.42C1912.24 1912.02 1901.64 1912.02 1891.05 1901.42L1843.35 1853.73Z" fill="#294773" fill-opacity="0.25"/>
<path d="M70.6556 16.9008C68.6073 14.8522 68.6073 12.8112 70.6556 10.7568L79.8716 1.54084C81.9198 -0.513563 83.9673 -0.513563 86.0156 1.54084L95.2316 10.7568C97.2798 12.8112 97.2798 14.8522 95.2316 16.9008L86.0156 26.1168C83.9673 28.1655 81.9198 28.1655 79.8716 26.1168L70.6556 16.9008Z" fill="#294773" fill-opacity="0.25"/>
<path d="M64.5114 210.437C61.4386 207.365 61.4386 204.293 64.5114 201.221L78.3354 187.397C81.4074 184.325 84.4794 184.325 87.5514 187.397L101.375 201.221C104.448 204.293 104.448 207.365 101.375 210.437L87.5514 224.261C84.4794 227.333 81.4074 227.333 78.3354 224.261L64.5114 210.437Z" fill="#294773" fill-opacity="0.25"/>
<path d="M58.3683 403.973C54.2718 399.875 54.2718 395.782 58.3683 391.685L76.7988 373.253C80.8953 369.155 84.9918 369.155 89.0883 373.253L107.519 391.685C111.615 395.782 111.615 399.875 107.519 403.973L89.0883 422.405C84.9918 426.502 80.8953 426.502 76.7988 422.405L58.3683 403.973Z" fill="#294773" fill-opacity="0.25"/>
<path d="M52.2236 597.509C47.1042 592.388 47.1042 587.269 52.2236 582.149L75.2636 559.109C80.3832 553.988 85.5041 553.988 90.6236 559.109L113.664 582.149C118.783 587.269 118.783 592.388 113.664 597.509L90.6236 620.549C85.5041 625.669 80.3832 625.669 75.2636 620.549L52.2236 597.509Z" fill="#294773" fill-opacity="0.25"/>
<path d="M46.0784 791.045C39.9351 784.901 39.9351 778.757 46.0784 772.613L73.7279 744.965C79.8711 738.821 86.0151 738.821 92.1584 744.965L119.808 772.613C125.951 778.757 125.951 784.901 119.808 791.045L92.1584 818.693C86.0151 824.837 79.8711 824.837 73.7279 818.693L46.0784 791.045Z" fill="#294773" fill-opacity="0.25"/>
<path d="M39.9349 984.581C32.7671 977.411 32.7671 970.246 39.9349 963.077L72.1909 930.821C79.3586 923.651 86.5271 923.651 93.6949 930.821L125.951 963.077C133.119 970.246 133.119 977.411 125.951 984.581L93.6949 1016.84C86.5271 1024.01 79.3586 1024.01 72.1909 1016.84L39.9349 984.581Z" fill="#294773" fill-opacity="0.25"/>
<path d="M33.7917 1178.12C25.5994 1169.93 25.5994 1161.73 33.7917 1153.54L70.6557 1116.68C78.8479 1108.49 87.0394 1108.49 95.2317 1116.68L132.096 1153.54C140.288 1161.73 140.288 1169.93 132.096 1178.12L95.2317 1214.98C87.0394 1223.17 78.8479 1223.17 70.6557 1214.98L33.7917 1178.12Z" fill="#294773" fill-opacity="0.25"/>
<path d="M27.6484 1371.65C18.4316 1362.44 18.4316 1353.22 27.6484 1344L69.1189 1302.53C78.3356 1293.32 87.5517 1293.32 96.7684 1302.53L138.239 1344C147.456 1353.22 147.456 1362.44 138.239 1371.65L96.7684 1413.12C87.5517 1422.34 78.3356 1422.34 69.1189 1413.12L27.6484 1371.65Z" fill="#294773" fill-opacity="0.25"/>
<path d="M21.5029 1565.19C11.2624 1554.95 11.2624 1544.71 21.5029 1534.47L67.5829 1488.39C77.8234 1478.15 88.0624 1478.15 98.3029 1488.39L144.383 1534.47C154.623 1544.71 154.623 1554.95 144.383 1565.19L98.3029 1611.27C88.0624 1621.51 77.8234 1621.51 67.5829 1611.27L21.5029 1565.19Z" fill="#294773" fill-opacity="0.25"/>
<path d="M15.3587 1758.72C4.09526 1747.46 4.09526 1736.2 15.3587 1724.93L66.0483 1674.24C77.3118 1662.98 88.5753 1662.98 99.8388 1674.24L150.528 1724.93C161.792 1736.2 161.792 1747.46 150.528 1758.72L99.8388 1809.41C88.5753 1820.68 77.3118 1820.68 66.0483 1809.41L15.3587 1758.72Z" fill="#294773" fill-opacity="0.25"/>
<path d="M9.21542 1952.26C-3.07181 1939.97 -3.07181 1927.68 9.21542 1915.4L64.5114 1860.1C76.7987 1847.81 89.0882 1847.81 101.375 1860.1L156.671 1915.4C168.959 1927.68 168.959 1939.97 156.671 1952.26L101.375 2007.56C89.0882 2019.84 76.7987 2019.84 64.5114 2007.56L9.21542 1952.26Z" fill="#294773" fill-opacity="0.25"/>
<path d="M262.655 16.9008C260.607 14.8522 260.607 12.8112 262.655 10.7568L271.871 1.54084C273.92 -0.513563 275.967 -0.513563 278.015 1.54084L287.231 10.7568C289.28 12.8112 289.28 14.8522 287.231 16.9008L278.015 26.1168C275.967 28.1655 273.92 28.1655 271.871 26.1168L262.655 16.9008Z" fill="#294773" fill-opacity="0.25"/>
<path d="M256.512 210.437C253.439 207.365 253.439 204.293 256.512 201.221L270.336 187.397C273.408 184.325 276.48 184.325 279.552 187.397L293.376 201.221C296.448 204.293 296.448 207.365 293.376 210.437L279.552 224.261C276.48 227.333 273.408 227.333 270.336 224.261L256.512 210.437Z" fill="#294773" fill-opacity="0.25"/>
<path d="M250.369 403.973C246.272 399.875 246.272 395.782 250.369 391.685L268.799 373.253C272.895 369.155 276.992 369.155 281.088 373.253L299.52 391.685C303.615 395.782 303.615 399.875 299.52 403.973L281.088 422.405C276.992 426.502 272.895 426.502 268.799 422.405L250.369 403.973Z" fill="#294773" fill-opacity="0.25"/>
<path d="M244.224 597.509C239.104 592.388 239.104 587.269 244.224 582.149L267.264 559.109C272.383 553.988 277.503 553.988 282.624 559.109L305.664 582.149C310.784 587.269 310.784 592.388 305.664 597.509L282.624 620.549C277.503 625.669 272.383 625.669 267.264 620.549L244.224 597.509Z" fill="#294773" fill-opacity="0.25"/>
<path d="M238.079 791.045C231.936 784.901 231.936 778.757 238.079 772.613L265.728 744.965C271.872 738.821 278.016 738.821 284.16 744.965L311.808 772.613C317.952 778.757 317.952 784.901 311.808 791.045L284.16 818.693C278.016 824.837 271.872 824.837 265.728 818.693L238.079 791.045Z" fill="#294773" fill-opacity="0.25"/>
<path d="M231.935 984.581C224.768 977.411 224.768 970.246 231.935 963.077L264.191 930.821C271.359 923.651 278.528 923.651 285.695 930.821L317.951 963.077C325.119 970.246 325.119 977.411 317.951 984.581L285.695 1016.84C278.528 1024.01 271.359 1024.01 264.191 1016.84L231.935 984.581Z" fill="#294773" fill-opacity="0.25"/>
<path d="M225.792 1178.12C217.599 1169.93 217.599 1161.73 225.792 1153.54L262.656 1116.68C270.848 1108.49 279.039 1108.49 287.232 1116.68L324.096 1153.54C332.288 1161.73 332.288 1169.93 324.096 1178.12L287.232 1214.98C279.039 1223.17 270.848 1223.17 262.656 1214.98L225.792 1178.12Z" fill="#294773" fill-opacity="0.25"/>
<path d="M219.648 1371.65C210.431 1362.44 210.431 1353.22 219.648 1344L261.118 1302.53C270.335 1293.32 279.551 1293.32 288.767 1302.53L330.239 1344C339.455 1353.22 339.455 1362.44 330.239 1371.65L288.767 1413.12C279.551 1422.34 270.335 1422.34 261.118 1413.12L219.648 1371.65Z" fill="#294773" fill-opacity="0.25"/>
<path d="M213.504 1565.19C203.263 1554.95 203.263 1544.71 213.504 1534.47L259.584 1488.39C269.824 1478.15 280.064 1478.15 290.304 1488.39L336.384 1534.47C346.623 1544.71 346.623 1554.95 336.384 1565.19L290.304 1611.27C280.064 1621.51 269.824 1621.51 259.584 1611.27L213.504 1565.19Z" fill="#294773" fill-opacity="0.25"/>
<path d="M207.359 1758.72C196.096 1747.46 196.096 1736.2 207.359 1724.93L258.049 1674.24C269.312 1662.98 280.575 1662.98 291.84 1674.24L342.528 1724.93C353.792 1736.2 353.792 1747.46 342.528 1758.72L291.84 1809.41C280.575 1820.68 269.312 1820.68 258.049 1809.41L207.359 1758.72Z" fill="#294773" fill-opacity="0.25"/>
<path d="M201.215 1952.26C188.928 1939.97 188.928 1927.68 201.215 1915.4L256.511 1860.1C268.799 1847.81 281.087 1847.81 293.375 1860.1L348.671 1915.4C360.959 1927.68 360.959 1939.97 348.671 1952.26L293.375 2007.56C281.087 2019.84 268.799 2019.84 256.511 2007.56L201.215 1952.26Z" fill="#294773" fill-opacity="0.25"/>
<path d="M454.656 16.9008C452.607 14.8522 452.607 12.8112 454.656 10.7568L463.872 1.54084C465.92 -0.513563 467.967 -0.513563 470.016 1.54084L479.232 10.7568C481.28 12.8112 481.28 14.8522 479.232 16.9008L470.016 26.1168C467.967 28.1655 465.92 28.1655 463.872 26.1168L454.656 16.9008Z" fill="#294773" fill-opacity="0.25"/>
<path d="M448.512 210.437C445.44 207.365 445.44 204.293 448.512 201.221L462.336 187.397C465.408 184.325 468.48 184.325 471.552 187.397L485.376 201.221C488.448 204.293 488.448 207.365 485.376 210.437L471.552 224.261C468.48 227.333 465.408 227.333 462.336 224.261L448.512 210.437Z" fill="#294773" fill-opacity="0.25"/>
<path d="M442.367 403.973C438.272 399.875 438.272 395.782 442.367 391.685L460.799 373.253C464.894 369.155 468.992 369.155 473.087 373.253L491.519 391.685C495.614 395.782 495.614 399.875 491.519 403.973L473.087 422.405C468.992 426.502 464.894 426.502 460.799 422.405L442.367 403.973Z" fill="#294773" fill-opacity="0.25"/>
<path d="M436.223 597.509C431.103 592.388 431.103 587.269 436.223 582.149L459.263 559.109C464.384 553.988 469.503 553.988 474.623 559.109L497.663 582.149C502.784 587.269 502.784 592.388 497.663 597.509L474.623 620.549C469.503 625.669 464.384 625.669 459.263 620.549L436.223 597.509Z" fill="#294773" fill-opacity="0.25"/>
<path d="M430.08 791.045C423.936 784.901 423.936 778.757 430.08 772.613L457.728 744.965C463.872 738.821 470.016 738.821 476.16 744.965L503.808 772.613C509.952 778.757 509.952 784.901 503.808 791.045L476.16 818.693C470.016 824.837 463.872 824.837 457.728 818.693L430.08 791.045Z" fill="#294773" fill-opacity="0.25"/>
<path d="M423.936 984.581C416.768 977.411 416.768 970.246 423.936 963.077L456.192 930.821C463.359 923.651 470.528 923.651 477.696 930.821L509.952 963.077C517.119 970.246 517.119 977.411 509.952 984.581L477.696 1016.84C470.528 1024.01 463.359 1024.01 456.192 1016.84L423.936 984.581Z" fill="#294773" fill-opacity="0.25"/>
<path d="M417.791 1178.12C409.599 1169.93 409.599 1161.73 417.791 1153.54L454.655 1116.68C462.848 1108.49 471.039 1108.49 479.231 1116.68L516.095 1153.54C524.288 1161.73 524.288 1169.93 516.095 1178.12L479.231 1214.98C471.039 1223.17 462.848 1223.17 454.655 1214.98L417.791 1178.12Z" fill="#294773" fill-opacity="0.25"/>
<path d="M411.648 1371.65C402.432 1362.44 402.432 1353.22 411.648 1344L453.12 1302.53C462.336 1293.32 471.552 1293.32 480.768 1302.53L522.24 1344C531.456 1353.22 531.456 1362.44 522.24 1371.65L480.768 1413.12C471.552 1422.34 462.336 1422.34 453.12 1413.12L411.648 1371.65Z" fill="#294773" fill-opacity="0.25"/>
<path d="M405.503 1565.19C395.264 1554.95 395.264 1544.71 405.503 1534.47L451.583 1488.39C461.823 1478.15 472.064 1478.15 482.303 1488.39L528.383 1534.47C538.623 1544.71 538.623 1554.95 528.383 1565.19L482.303 1611.27C472.064 1621.51 461.823 1621.51 451.583 1611.27L405.503 1565.19Z" fill="#294773" fill-opacity="0.25"/>
<path d="M399.359 1758.72C388.095 1747.46 388.095 1736.2 399.359 1724.93L450.047 1674.24C461.312 1662.98 472.575 1662.98 483.839 1674.24L534.527 1724.93C545.792 1736.2 545.792 1747.46 534.527 1758.72L483.839 1809.41C472.575 1820.68 461.312 1820.68 450.047 1809.41L399.359 1758.72Z" fill="#294773" fill-opacity="0.25"/>
<path d="M393.215 1952.26C380.927 1939.97 380.927 1927.68 393.215 1915.4L448.511 1860.1C460.799 1847.81 473.087 1847.81 485.375 1860.1L540.671 1915.4C552.959 1927.68 552.959 1939.97 540.671 1952.26L485.375 2007.56C473.087 2019.84 460.799 2019.84 448.511 2007.56L393.215 1952.26Z" fill="#294773" fill-opacity="0.25"/>
<path d="M646.655 16.9008C644.606 14.8522 644.606 12.8112 646.655 10.7568L655.871 1.54084C657.92 -0.513563 659.966 -0.513563 662.015 1.54084L671.231 10.7568C673.28 12.8112 673.28 14.8522 671.231 16.9008L662.015 26.1168C659.966 28.1655 657.92 28.1655 655.871 26.1168L646.655 16.9008Z" fill="#294773" fill-opacity="0.25"/>
<path d="M640.512 210.437C637.44 207.365 637.44 204.293 640.512 201.221L654.336 187.397C657.408 184.325 660.48 184.325 663.552 187.397L677.376 201.221C680.448 204.293 680.448 207.365 677.376 210.437L663.552 224.261C660.48 227.333 657.408 227.333 654.336 224.261L640.512 210.437Z" fill="#294773" fill-opacity="0.25"/>
<path d="M634.367 403.973C630.272 399.875 630.272 395.782 634.367 391.685L652.799 373.253C656.895 369.155 660.992 369.155 665.087 373.253L683.519 391.685C687.617 395.782 687.617 399.875 683.519 403.973L665.087 422.405C660.992 426.502 656.895 426.502 652.799 422.405L634.367 403.973Z" fill="#294773" fill-opacity="0.25"/>
<path d="M628.223 597.509C623.102 592.388 623.102 587.269 628.223 582.149L651.263 559.109C656.384 553.988 661.502 553.988 666.623 559.109L689.663 582.149C694.784 587.269 694.784 592.388 689.663 597.509L666.623 620.549C661.502 625.669 656.384 625.669 651.263 620.549L628.223 597.509Z" fill="#294773" fill-opacity="0.25"/>
<path d="M622.079 791.045C615.935 784.901 615.935 778.757 622.079 772.613L649.727 744.965C655.871 738.821 662.015 738.821 668.159 744.965L695.807 772.613C701.951 778.757 701.951 784.901 695.807 791.045L668.159 818.693C662.015 824.837 655.871 824.837 649.727 818.693L622.079 791.045Z" fill="#294773" fill-opacity="0.25"/>
<path d="M615.935 984.581C608.768 977.411 608.768 970.246 615.935 963.077L648.191 930.821C655.359 923.651 662.528 923.651 669.695 930.821L701.951 963.077C709.121 970.246 709.121 977.411 701.951 984.581L669.695 1016.84C662.528 1024.01 655.359 1024.01 648.191 1016.84L615.935 984.581Z" fill="#294773" fill-opacity="0.25"/>
<path d="M609.791 1178.12C601.599 1169.93 601.599 1161.73 609.791 1153.54L646.655 1116.68C654.848 1108.49 663.039 1108.49 671.231 1116.68L708.095 1153.54C716.286 1161.73 716.286 1169.93 708.095 1178.12L671.231 1214.98C663.039 1223.17 654.848 1223.17 646.655 1214.98L609.791 1178.12Z" fill="#294773" fill-opacity="0.25"/>
<path d="M603.647 1371.65C594.431 1362.44 594.431 1353.22 603.647 1344L645.119 1302.53C654.335 1293.32 663.551 1293.32 672.767 1302.53L714.239 1344C723.455 1353.22 723.455 1362.44 714.239 1371.65L672.767 1413.12C663.551 1422.34 654.335 1422.34 645.119 1413.12L603.647 1371.65Z" fill="#294773" fill-opacity="0.25"/>
<path d="M597.503 1565.19C587.264 1554.95 587.264 1544.71 597.503 1534.47L643.583 1488.39C653.823 1478.15 664.064 1478.15 674.303 1488.39L720.383 1534.47C730.623 1544.71 730.623 1554.95 720.383 1565.19L674.303 1611.27C664.064 1621.51 653.823 1621.51 643.583 1611.27L597.503 1565.19Z" fill="#294773" fill-opacity="0.25"/>
<path d="M591.359 1758.72C580.095 1747.46 580.095 1736.2 591.359 1724.93L642.047 1674.24C653.312 1662.98 664.575 1662.98 675.839 1674.24L726.527 1724.93C737.79 1736.2 737.79 1747.46 726.527 1758.72L675.839 1809.41C664.575 1820.68 653.312 1820.68 642.047 1809.41L591.359 1758.72Z" fill="#294773" fill-opacity="0.25"/>
<path d="M585.216 1952.26C572.928 1939.97 572.928 1927.68 585.216 1915.4L640.512 1860.1C652.8 1847.81 665.088 1847.81 677.376 1860.1L732.672 1915.4C744.96 1927.68 744.96 1939.97 732.672 1952.26L677.376 2007.56C665.088 2019.84 652.8 2019.84 640.512 2007.56L585.216 1952.26Z" fill="#294773" fill-opacity="0.25"/>
<path d="M838.655 16.9008C836.607 14.8522 836.607 12.8112 838.655 10.7568L847.871 1.54084C849.92 -0.513563 851.967 -0.513563 854.015 1.54084L863.231 10.7568C865.28 12.8112 865.28 14.8522 863.231 16.9008L854.015 26.1168C851.967 28.1655 849.92 28.1655 847.871 26.1168L838.655 16.9008Z" fill="#294773" fill-opacity="0.25"/>
<path d="M832.512 210.437C829.44 207.365 829.44 204.293 832.512 201.221L846.336 187.397C849.408 184.325 852.48 184.325 855.552 187.397L869.376 201.221C872.448 204.293 872.448 207.365 869.376 210.437L855.552 224.261C852.48 227.333 849.408 227.333 846.336 224.261L832.512 210.437Z" fill="#294773" fill-opacity="0.25"/>
<path d="M826.367 403.973C822.27 399.875 822.27 395.782 826.367 391.685L844.799 373.253C848.897 369.155 852.99 369.155 857.087 373.253L875.519 391.685C879.617 395.782 879.617 399.875 875.519 403.973L857.087 422.405C852.99 426.502 848.897 426.502 844.799 422.405L826.367 403.973Z" fill="#294773" fill-opacity="0.25"/>
<path d="M820.224 597.509C815.103 592.388 815.103 587.269 820.224 582.149L843.264 559.109C848.384 553.988 853.503 553.988 858.624 559.109L881.664 582.149C886.784 587.269 886.784 592.388 881.664 597.509L858.624 620.549C853.503 625.669 848.384 625.669 843.264 620.549L820.224 597.509Z" fill="#294773" fill-opacity="0.25"/>
<path d="M814.079 791.045C807.935 784.901 807.935 778.757 814.079 772.613L841.727 744.965C847.871 738.821 854.015 738.821 860.159 744.965L887.807 772.613C893.951 778.757 893.951 784.901 887.807 791.045L860.159 818.693C854.015 824.837 847.871 824.837 841.727 818.693L814.079 791.045Z" fill="#294773" fill-opacity="0.25"/>
<path d="M807.935 984.581C800.766 977.411 800.766 970.246 807.935 963.077L840.191 930.821C847.36 923.651 854.526 923.651 861.695 930.821L893.951 963.077C901.12 970.246 901.12 977.411 893.951 984.581L861.695 1016.84C854.526 1024.01 847.36 1024.01 840.191 1016.84L807.935 984.581Z" fill="#294773" fill-opacity="0.25"/>
<path d="M801.791 1178.12C793.601 1169.93 793.601 1161.73 801.791 1153.54L838.655 1116.68C846.846 1108.49 855.041 1108.49 863.231 1116.68L900.095 1153.54C908.286 1161.73 908.286 1169.93 900.095 1178.12L863.231 1214.98C855.041 1223.17 846.846 1223.17 838.655 1214.98L801.791 1178.12Z" fill="#294773" fill-opacity="0.25"/>
<path d="M795.647 1371.65C786.431 1362.44 786.431 1353.22 795.647 1344L837.119 1302.53C846.335 1293.32 855.551 1293.32 864.767 1302.53L906.239 1344C915.455 1353.22 915.455 1362.44 906.239 1371.65L864.767 1413.12C855.551 1422.34 846.335 1422.34 837.119 1413.12L795.647 1371.65Z" fill="#294773" fill-opacity="0.25"/>
<path d="M789.503 1565.19C779.264 1554.95 779.264 1544.71 789.503 1534.47L835.583 1488.39C845.822 1478.15 856.064 1478.15 866.303 1488.39L912.383 1534.47C922.622 1544.71 922.622 1554.95 912.383 1565.19L866.303 1611.27C856.064 1621.51 845.822 1621.51 835.583 1611.27L789.503 1565.19Z" fill="#294773" fill-opacity="0.25"/>
<path d="M783.359 1758.72C772.097 1747.46 772.097 1736.2 783.359 1724.93L834.047 1674.24C845.31 1662.98 856.577 1662.98 867.839 1674.24L918.527 1724.93C929.79 1736.2 929.79 1747.46 918.527 1758.72L867.839 1809.41C856.577 1820.68 845.31 1820.68 834.047 1809.41L783.359 1758.72Z" fill="#294773" fill-opacity="0.25"/>
<path d="M777.216 1952.26C764.928 1939.97 764.928 1927.68 777.216 1915.4L832.512 1860.1C844.8 1847.81 857.088 1847.81 869.376 1860.1L924.672 1915.4C936.96 1927.68 936.96 1939.97 924.672 1952.26L869.376 2007.56C857.088 2019.84 844.8 2019.84 832.512 2007.56L777.216 1952.26Z" fill="#294773" fill-opacity="0.25"/>
<path d="M1030.66 16.9008C1028.61 14.8522 1028.61 12.8112 1030.66 10.7568L1039.87 1.54084C1041.92 -0.513563 1043.97 -0.513563 1046.02 1.54084L1055.23 10.7568C1057.28 12.8112 1057.28 14.8522 1055.23 16.9008L1046.02 26.1168C1043.97 28.1655 1041.92 28.1655 1039.87 26.1168L1030.66 16.9008Z" fill="#294773" fill-opacity="0.25"/>
<path d="M1024.51 210.437C1021.44 207.365 1021.44 204.293 1024.51 201.221L1038.34 187.397C1041.41 184.325 1044.48 184.325 1047.55 187.397L1061.38 201.221C1064.45 204.293 1064.45 207.365 1061.38 210.437L1047.55 224.261C1044.48 227.333 1041.41 227.333 1038.34 224.261L1024.51 210.437Z" fill="#294773" fill-opacity="0.25"/>
<path d="M1018.37 403.973C1014.27 399.875 1014.27 395.782 1018.37 391.685L1036.8 373.253C1040.9 369.155 1044.99 369.155 1049.09 373.253L1067.52 391.685C1071.62 395.782 1071.62 399.875 1067.52 403.973L1049.09 422.405C1044.99 426.502 1040.9 426.502 1036.8 422.405L1018.37 403.973Z" fill="#294773" fill-opacity="0.25"/>
<path d="M1012.22 597.509C1007.1 592.388 1007.1 587.269 1012.22 582.149L1035.26 559.109C1040.38 553.988 1045.5 553.988 1050.62 559.109L1073.66 582.149C1078.78 587.269 1078.78 592.388 1073.66 597.509L1050.62 620.549C1045.5 625.669 1040.38 625.669 1035.26 620.549L1012.22 597.509Z" fill="#294773" fill-opacity="0.25"/>
<path d="M1006.08 791.045C999.935 784.901 999.935 778.757 1006.08 772.613L1033.73 744.965C1039.87 738.821 1046.02 738.821 1052.16 744.965L1079.81 772.613C1085.95 778.757 1085.95 784.901 1079.81 791.045L1052.16 818.693C1046.02 824.837 1039.87 824.837 1033.73 818.693L1006.08 791.045Z" fill="#294773" fill-opacity="0.25"/>
<path d="M999.936 984.581C992.766 977.411 992.766 970.246 999.936 963.077L1032.19 930.821C1039.36 923.651 1046.53 923.651 1053.7 930.821L1085.95 963.077C1093.12 970.246 1093.12 977.411 1085.95 984.581L1053.7 1016.84C1046.53 1024.01 1039.36 1024.01 1032.19 1016.84L999.936 984.581Z" fill="#294773" fill-opacity="0.25"/>
<path d="M993.791 1178.12C985.601 1169.93 985.601 1161.73 993.791 1153.54L1030.66 1116.68C1038.85 1108.49 1047.04 1108.49 1055.23 1116.68L1092.1 1153.54C1100.29 1161.73 1100.29 1169.93 1092.1 1178.12L1055.23 1214.98C1047.04 1223.17 1038.85 1223.17 1030.66 1214.98L993.791 1178.12Z" fill="#294773" fill-opacity="0.25"/>
<path d="M987.647 1371.65C978.431 1362.44 978.431 1353.22 987.647 1344L1029.12 1302.53C1038.34 1293.32 1047.55 1293.32 1056.77 1302.53L1098.24 1344C1107.46 1353.22 1107.46 1362.44 1098.24 1371.65L1056.77 1413.12C1047.55 1422.34 1038.34 1422.34 1029.12 1413.12L987.647 1371.65Z" fill="#294773" fill-opacity="0.25"/>
<path d="M981.503 1565.19C971.264 1554.95 971.264 1544.71 981.503 1534.47L1027.58 1488.39C1037.82 1478.15 1048.06 1478.15 1058.3 1488.39L1104.38 1534.47C1114.62 1544.71 1114.62 1554.95 1104.38 1565.19L1058.3 1611.27C1048.06 1621.51 1037.82 1621.51 1027.58 1611.27L981.503 1565.19Z" fill="#294773" fill-opacity="0.25"/>
<path d="M975.359 1758.72C964.096 1747.46 964.096 1736.2 975.359 1724.93L1026.05 1674.24C1037.31 1662.98 1048.58 1662.98 1059.84 1674.24L1110.53 1724.93C1121.79 1736.2 1121.79 1747.46 1110.53 1758.72L1059.84 1809.41C1048.58 1820.68 1037.31 1820.68 1026.05 1809.41L975.359 1758.72Z" fill="#294773" fill-opacity="0.25"/>
<path d="M969.215 1952.26C956.927 1939.97 956.927 1927.68 969.215 1915.4L1024.51 1860.1C1036.8 1847.81 1049.09 1847.81 1061.38 1860.1L1116.67 1915.4C1128.96 1927.68 1128.96 1939.97 1116.67 1952.26L1061.38 2007.56C1049.09 2019.84 1036.8 2019.84 1024.51 2007.56L969.215 1952.26Z" fill="#294773" fill-opacity="0.25"/>
<path d="M1222.65 16.9008C1220.61 14.8522 1220.61 12.8112 1222.65 10.7568L1231.87 1.54084C1233.92 -0.513563 1235.97 -0.513563 1238.01 1.54084L1247.23 10.7568C1249.28 12.8112 1249.28 14.8522 1247.23 16.9008L1238.01 26.1168C1235.97 28.1655 1233.92 28.1655 1231.87 26.1168L1222.65 16.9008Z" fill="#294773" fill-opacity="0.25"/>
<path d="M1216.51 210.437C1213.44 207.365 1213.44 204.293 1216.51 201.221L1230.34 187.397C1233.41 184.325 1236.48 184.325 1239.55 187.397L1253.38 201.221C1256.45 204.293 1256.45 207.365 1253.38 210.437L1239.55 224.261C1236.48 227.333 1233.41 227.333 1230.34 224.261L1216.51 210.437Z" fill="#294773" fill-opacity="0.25"/>
<path d="M1210.37 403.973C1206.27 399.875 1206.27 395.782 1210.37 391.685L1228.8 373.253C1232.9 369.155 1236.99 369.155 1241.09 373.253L1259.52 391.685C1263.62 395.782 1263.62 399.875 1259.52 403.973L1241.09 422.405C1236.99 426.502 1232.9 426.502 1228.8 422.405L1210.37 403.973Z" fill="#294773" fill-opacity="0.25"/>
<path d="M1204.22 597.509C1199.1 592.388 1199.1 587.269 1204.22 582.149L1227.26 559.109C1232.38 553.988 1237.5 553.988 1242.62 559.109L1265.66 582.149C1270.78 587.269 1270.78 592.388 1265.66 597.509L1242.62 620.549C1237.5 625.669 1232.38 625.669 1227.26 620.549L1204.22 597.509Z" fill="#294773" fill-opacity="0.25"/>
<path d="M1198.08 791.045C1191.94 784.901 1191.94 778.757 1198.08 772.613L1225.73 744.965C1231.87 738.821 1238.02 738.821 1244.16 744.965L1271.81 772.613C1277.95 778.757 1277.95 784.901 1271.81 791.045L1244.16 818.693C1238.02 824.837 1231.87 824.837 1225.73 818.693L1198.08 791.045Z" fill="#294773" fill-opacity="0.25"/>
<path d="M1191.94 984.581C1184.77 977.412 1184.77 970.246 1191.94 963.077L1224.19 930.821C1231.36 923.652 1238.53 923.652 1245.7 930.821L1277.95 963.077C1285.12 970.246 1285.12 977.412 1277.95 984.581L1245.7 1016.84C1238.53 1024.01 1231.36 1024.01 1224.19 1016.84L1191.94 984.581Z" fill="#294773" fill-opacity="0.25"/>
<path d="M1185.79 1178.12C1177.6 1169.93 1177.6 1161.73 1185.79 1153.54L1222.66 1116.68C1230.85 1108.49 1239.04 1108.49 1247.23 1116.68L1284.1 1153.54C1292.29 1161.73 1292.29 1169.93 1284.1 1178.12L1247.23 1214.98C1239.04 1223.17 1230.85 1223.17 1222.66 1214.98L1185.79 1178.12Z" fill="#294773" fill-opacity="0.25"/>
<path d="M1179.65 1371.65C1170.43 1362.44 1170.43 1353.22 1179.65 1344L1221.12 1302.53C1230.33 1293.32 1239.55 1293.32 1248.77 1302.53L1290.24 1344C1299.45 1353.22 1299.45 1362.44 1290.24 1371.65L1248.77 1413.12C1239.55 1422.34 1230.33 1422.34 1221.12 1413.12L1179.65 1371.65Z" fill="#294773" fill-opacity="0.25"/>
<path d="M1173.5 1565.19C1163.26 1554.95 1163.26 1544.71 1173.5 1534.47L1219.58 1488.39C1229.82 1478.15 1240.06 1478.15 1250.3 1488.39L1296.38 1534.47C1306.62 1544.71 1306.62 1554.95 1296.38 1565.19L1250.3 1611.27C1240.06 1621.51 1229.82 1621.51 1219.58 1611.27L1173.5 1565.19Z" fill="#294773" fill-opacity="0.25"/>
<path d="M1167.36 1758.72C1156.1 1747.46 1156.1 1736.2 1167.36 1724.93L1218.05 1674.24C1229.31 1662.98 1240.58 1662.98 1251.84 1674.24L1302.53 1724.93C1313.79 1736.2 1313.79 1747.46 1302.53 1758.72L1251.84 1809.41C1240.58 1820.68 1229.31 1820.68 1218.05 1809.41L1167.36 1758.72Z" fill="#294773" fill-opacity="0.25"/>
<path d="M1161.22 1952.26C1148.93 1939.97 1148.93 1927.68 1161.22 1915.4L1216.51 1860.1C1228.8 1847.81 1241.09 1847.81 1253.38 1860.1L1308.67 1915.4C1320.96 1927.68 1320.96 1939.97 1308.67 1952.26L1253.38 2007.56C1241.09 2019.84 1228.8 2019.84 1216.51 2007.56L1161.22 1952.26Z" fill="#294773" fill-opacity="0.25"/>
<path d="M1414.66 16.9008C1412.61 14.8522 1412.61 12.8112 1414.66 10.7568L1423.87 1.54084C1425.92 -0.513563 1427.97 -0.513563 1430.02 1.54084L1439.23 10.7568C1441.28 12.8112 1441.28 14.8522 1439.23 16.9008L1430.02 26.1168C1427.97 28.1655 1425.92 28.1655 1423.87 26.1168L1414.66 16.9008Z" fill="#294773" fill-opacity="0.25"/>
<path d="M1408.51 210.437C1405.44 207.365 1405.44 204.293 1408.51 201.221L1422.34 187.397C1425.41 184.325 1428.48 184.325 1431.55 187.397L1445.38 201.221C1448.45 204.293 1448.45 207.365 1445.38 210.437L1431.55 224.261C1428.48 227.333 1425.41 227.333 1422.34 224.261L1408.51 210.437Z" fill="#294773" fill-opacity="0.25"/>
<path d="M1402.37 403.973C1398.27 399.875 1398.27 395.782 1402.37 391.685L1420.8 373.253C1424.9 369.155 1428.99 369.155 1433.09 373.253L1451.52 391.685C1455.62 395.782 1455.62 399.875 1451.52 403.973L1433.09 422.405C1428.99 426.502 1424.9 426.502 1420.8 422.405L1402.37 403.973Z" fill="#294773" fill-opacity="0.25"/>
<path d="M1396.22 597.509C1391.1 592.388 1391.1 587.269 1396.22 582.149L1419.26 559.109C1424.38 553.988 1429.5 553.988 1434.62 559.109L1457.66 582.149C1462.78 587.269 1462.78 592.388 1457.66 597.509L1434.62 620.549C1429.5 625.669 1424.38 625.669 1419.26 620.549L1396.22 597.509Z" fill="#294773" fill-opacity="0.25"/>
<path d="M1390.08 791.045C1383.94 784.901 1383.94 778.757 1390.08 772.613L1417.73 744.965C1423.87 738.821 1430.02 738.821 1436.16 744.965L1463.81 772.613C1469.95 778.757 1469.95 784.901 1463.81 791.045L1436.16 818.693C1430.02 824.837 1423.87 824.837 1417.73 818.693L1390.08 791.045Z" fill="#294773" fill-opacity="0.25"/>
<path d="M1383.93 984.581C1376.77 977.412 1376.77 970.246 1383.93 963.077L1416.19 930.821C1423.36 923.652 1430.53 923.652 1437.69 930.821L1469.95 963.077C1477.12 970.246 1477.12 977.412 1469.95 984.581L1437.69 1016.84C1430.53 1024.01 1423.36 1024.01 1416.19 1016.84L1383.93 984.581Z" fill="#294773" fill-opacity="0.25"/>
<path d="M1377.79 1178.12C1369.6 1169.93 1369.6 1161.73 1377.79 1153.54L1414.66 1116.68C1422.85 1108.49 1431.04 1108.49 1439.23 1116.68L1476.1 1153.54C1484.29 1161.73 1484.29 1169.93 1476.1 1178.12L1439.23 1214.98C1431.04 1223.17 1422.85 1223.17 1414.66 1214.98L1377.79 1178.12Z" fill="#294773" fill-opacity="0.25"/>
<path d="M1371.65 1371.65C1362.43 1362.44 1362.43 1353.22 1371.65 1344L1413.12 1302.53C1422.34 1293.32 1431.55 1293.32 1440.77 1302.53L1482.24 1344C1491.46 1353.22 1491.46 1362.44 1482.24 1371.65L1440.77 1413.12C1431.55 1422.34 1422.34 1422.34 1413.12 1413.12L1371.65 1371.65Z" fill="#294773" fill-opacity="0.25"/>
<path d="M1365.5 1565.19C1355.26 1554.95 1355.26 1544.71 1365.5 1534.47L1411.58 1488.39C1421.82 1478.15 1432.06 1478.15 1442.3 1488.39L1488.38 1534.47C1498.62 1544.71 1498.62 1554.95 1488.38 1565.19L1442.3 1611.27C1432.06 1621.51 1421.82 1621.51 1411.58 1611.27L1365.5 1565.19Z" fill="#294773" fill-opacity="0.25"/>
<path d="M1359.36 1758.72C1348.1 1747.46 1348.1 1736.2 1359.36 1724.93L1410.05 1674.24C1421.31 1662.98 1432.58 1662.98 1443.84 1674.24L1494.53 1724.93C1505.79 1736.2 1505.79 1747.46 1494.53 1758.72L1443.84 1809.41C1432.58 1820.68 1421.31 1820.68 1410.05 1809.41L1359.36 1758.72Z" fill="#294773" fill-opacity="0.25"/>
<path d="M1353.22 1952.26C1340.93 1939.97 1340.93 1927.68 1353.22 1915.4L1408.51 1860.1C1420.8 1847.81 1433.09 1847.81 1445.38 1860.1L1500.67 1915.4C1512.96 1927.68 1512.96 1939.97 1500.67 1952.26L1445.38 2007.56C1433.09 2019.84 1420.8 2019.84 1408.51 2007.56L1353.22 1952.26Z" fill="#294773" fill-opacity="0.25"/>
<path d="M1606.66 16.9008C1604.61 14.8522 1604.61 12.8112 1606.66 10.7568L1615.87 1.54084C1617.92 -0.513563 1619.97 -0.513563 1622.02 1.54084L1631.23 10.7568C1633.28 12.8112 1633.28 14.8522 1631.23 16.9008L1622.02 26.1168C1619.97 28.1655 1617.92 28.1655 1615.87 26.1168L1606.66 16.9008Z" fill="#294773" fill-opacity="0.25"/>
<path d="M1600.51 210.437C1597.44 207.365 1597.44 204.293 1600.51 201.221L1614.34 187.397C1617.41 184.325 1620.48 184.325 1623.55 187.397L1637.38 201.221C1640.45 204.293 1640.45 207.365 1637.38 210.437L1623.55 224.261C1620.48 227.333 1617.41 227.333 1614.34 224.261L1600.51 210.437Z" fill="#294773" fill-opacity="0.25"/>
<path d="M1594.37 403.973C1590.27 399.875 1590.27 395.782 1594.37 391.685L1612.8 373.253C1616.9 369.155 1620.99 369.155 1625.09 373.253L1643.52 391.685C1647.62 395.782 1647.62 399.875 1643.52 403.973L1625.09 422.405C1620.99 426.502 1616.9 426.502 1612.8 422.405L1594.37 403.973Z" fill="#294773" fill-opacity="0.25"/>
<path d="M1588.22 597.509C1583.1 592.388 1583.1 587.269 1588.22 582.149L1611.26 559.109C1616.38 553.988 1621.5 553.988 1626.62 559.109L1649.66 582.149C1654.78 587.269 1654.78 592.388 1649.66 597.509L1626.62 620.549C1621.5 625.669 1616.38 625.669 1611.26 620.549L1588.22 597.509Z" fill="#294773" fill-opacity="0.25"/>
<path d="M1582.08 791.045C1575.94 784.901 1575.94 778.757 1582.08 772.613L1609.73 744.965C1615.87 738.821 1622.02 738.821 1628.16 744.965L1655.81 772.613C1661.95 778.757 1661.95 784.901 1655.81 791.045L1628.16 818.693C1622.02 824.837 1615.87 824.837 1609.73 818.693L1582.08 791.045Z" fill="#294773" fill-opacity="0.25"/>
<path d="M1575.94 984.581C1568.77 977.412 1568.77 970.246 1575.94 963.077L1608.19 930.821C1615.36 923.652 1622.53 923.652 1629.7 930.821L1661.95 963.077C1669.12 970.246 1669.12 977.412 1661.95 984.581L1629.7 1016.84C1622.53 1024.01 1615.36 1024.01 1608.19 1016.84L1575.94 984.581Z" fill="#294773" fill-opacity="0.25"/>
<path d="M1569.79 1178.12C1561.6 1169.93 1561.6 1161.73 1569.79 1153.54L1606.66 1116.68C1614.85 1108.49 1623.04 1108.49 1631.23 1116.68L1668.1 1153.54C1676.29 1161.73 1676.29 1169.93 1668.1 1178.12L1631.23 1214.98C1623.04 1223.17 1614.85 1223.17 1606.66 1214.98L1569.79 1178.12Z" fill="#294773" fill-opacity="0.25"/>
<path d="M1563.65 1371.65C1554.43 1362.44 1554.43 1353.22 1563.65 1344L1605.12 1302.53C1614.34 1293.32 1623.55 1293.32 1632.77 1302.53L1674.24 1344C1683.46 1353.22 1683.46 1362.44 1674.24 1371.65L1632.77 1413.12C1623.55 1422.34 1614.34 1422.34 1605.12 1413.12L1563.65 1371.65Z" fill="#294773" fill-opacity="0.25"/>
<path d="M1557.5 1565.19C1547.26 1554.95 1547.26 1544.71 1557.5 1534.47L1603.58 1488.39C1613.82 1478.15 1624.06 1478.15 1634.3 1488.39L1680.38 1534.47C1690.62 1544.71 1690.62 1554.95 1680.38 1565.19L1634.3 1611.27C1624.06 1621.51 1613.82 1621.51 1603.58 1611.27L1557.5 1565.19Z" fill="#294773" fill-opacity="0.25"/>
<path d="M1551.36 1758.72C1540.1 1747.46 1540.1 1736.2 1551.36 1724.93L1602.05 1674.24C1613.31 1662.98 1624.58 1662.98 1635.84 1674.24L1686.53 1724.93C1697.79 1736.2 1697.79 1747.46 1686.53 1758.72L1635.84 1809.41C1624.58 1820.68 1613.31 1820.68 1602.05 1809.41L1551.36 1758.72Z" fill="#294773" fill-opacity="0.25"/>
<path d="M1545.22 1952.26C1532.93 1939.97 1532.93 1927.68 1545.22 1915.4L1600.51 1860.1C1612.8 1847.81 1625.09 1847.81 1637.38 1860.1L1692.67 1915.4C1704.96 1927.68 1704.96 1939.97 1692.67 1952.26L1637.38 2007.56C1625.09 2019.84 1612.8 2019.84 1600.51 2007.56L1545.22 1952.26Z" fill="#294773" fill-opacity="0.25"/>
<path d="M1798.66 16.9008C1796.61 14.8522 1796.61 12.8112 1798.66 10.7568L1807.87 1.54084C1809.92 -0.513563 1811.97 -0.513563 1814.02 1.54084L1823.23 10.7568C1825.28 12.8112 1825.28 14.8522 1823.23 16.9008L1814.02 26.1168C1811.97 28.1655 1809.92 28.1655 1807.87 26.1168L1798.66 16.9008Z" fill="#294773" fill-opacity="0.25"/>
<path d="M1792.51 210.437C1789.44 207.365 1789.44 204.293 1792.51 201.221L1806.34 187.397C1809.41 184.325 1812.48 184.325 1815.55 187.397L1829.38 201.221C1832.45 204.293 1832.45 207.365 1829.38 210.437L1815.55 224.261C1812.48 227.333 1809.41 227.333 1806.34 224.261L1792.51 210.437Z" fill="#294773" fill-opacity="0.25"/>
<path d="M1786.37 403.973C1782.27 399.875 1782.27 395.782 1786.37 391.685L1804.8 373.253C1808.9 369.155 1812.99 369.155 1817.09 373.253L1835.52 391.685C1839.62 395.782 1839.62 399.875 1835.52 403.973L1817.09 422.405C1812.99 426.502 1808.9 426.502 1804.8 422.405L1786.37 403.973Z" fill="#294773" fill-opacity="0.25"/>
<path d="M1780.22 597.509C1775.1 592.388 1775.1 587.269 1780.22 582.149L1803.26 559.109C1808.38 553.988 1813.5 553.988 1818.62 559.109L1841.66 582.149C1846.78 587.269 1846.78 592.388 1841.66 597.509L1818.62 620.549C1813.5 625.669 1808.38 625.669 1803.26 620.549L1780.22 597.509Z" fill="#294773" fill-opacity="0.25"/>
<path d="M1774.08 791.045C1767.94 784.901 1767.94 778.757 1774.08 772.613L1801.73 744.965C1807.87 738.821 1814.02 738.821 1820.16 744.965L1847.81 772.613C1853.95 778.757 1853.95 784.901 1847.81 791.045L1820.16 818.693C1814.02 824.837 1807.87 824.837 1801.73 818.693L1774.08 791.045Z" fill="#294773" fill-opacity="0.25"/>
<path d="M1767.94 984.581C1760.77 977.412 1760.77 970.246 1767.94 963.077L1800.19 930.821C1807.36 923.652 1814.53 923.652 1821.7 930.821L1853.95 963.077C1861.12 970.246 1861.12 977.412 1853.95 984.581L1821.7 1016.84C1814.53 1024.01 1807.36 1024.01 1800.19 1016.84L1767.94 984.581Z" fill="#294773" fill-opacity="0.25"/>
<path d="M1761.79 1178.12C1753.6 1169.93 1753.6 1161.73 1761.79 1153.54L1798.66 1116.68C1806.85 1108.49 1815.04 1108.49 1823.23 1116.68L1860.1 1153.54C1868.29 1161.73 1868.29 1169.93 1860.1 1178.12L1823.23 1214.98C1815.04 1223.17 1806.85 1223.17 1798.66 1214.98L1761.79 1178.12Z" fill="#294773" fill-opacity="0.25"/>
<path d="M1755.65 1371.65C1746.43 1362.44 1746.43 1353.22 1755.65 1344L1797.12 1302.53C1806.34 1293.32 1815.55 1293.32 1824.77 1302.53L1866.24 1344C1875.46 1353.22 1875.46 1362.44 1866.24 1371.65L1824.77 1413.12C1815.55 1422.34 1806.34 1422.34 1797.12 1413.12L1755.65 1371.65Z" fill="#294773" fill-opacity="0.25"/>
<path d="M1749.5 1565.19C1739.26 1554.95 1739.26 1544.71 1749.5 1534.47L1795.58 1488.39C1805.82 1478.15 1816.06 1478.15 1826.3 1488.39L1872.38 1534.47C1882.62 1544.71 1882.62 1554.95 1872.38 1565.19L1826.3 1611.27C1816.06 1621.51 1805.82 1621.51 1795.58 1611.27L1749.5 1565.19Z" fill="#294773" fill-opacity="0.25"/>
<path d="M1743.36 1758.72C1732.1 1747.46 1732.1 1736.2 1743.36 1724.93L1794.05 1674.24C1805.31 1662.98 1816.58 1662.98 1827.84 1674.24L1878.53 1724.93C1889.79 1736.2 1889.79 1747.46 1878.53 1758.72L1827.84 1809.41C1816.58 1820.68 1805.31 1820.68 1794.05 1809.41L1743.36 1758.72Z" fill="#294773" fill-opacity="0.25"/>
<path d="M1737.22 1952.26C1724.93 1939.97 1724.93 1927.68 1737.22 1915.4L1792.51 1860.1C1804.8 1847.81 1817.09 1847.81 1829.38 1860.1L1884.67 1915.4C1896.96 1927.68 1896.96 1939.97 1884.67 1952.26L1829.38 2007.56C1817.09 2019.84 1804.8 2019.84 1792.51 2007.56L1737.22 1952.26Z" fill="#294773" fill-opacity="0.25"/>
<path d="M1990.66 16.9008C1988.61 14.8522 1988.61 12.8112 1990.66 10.7568L1999.87 1.54084C2001.92 -0.513563 2003.96 -0.513563 2006.02 1.54084L2015.23 10.7568C2017.29 12.8112 2017.29 14.8522 2015.23 16.9008L2006.02 26.1168C2003.96 28.1655 2001.92 28.1655 1999.87 26.1168L1990.66 16.9008Z" fill="#294773" fill-opacity="0.25"/>
<path d="M1984.51 210.437C1981.44 207.365 1981.44 204.293 1984.51 201.221L1998.34 187.397C2001.41 184.325 2004.48 184.325 2007.55 187.397L2021.38 201.221C2024.45 204.293 2024.45 207.365 2021.38 210.437L2007.55 224.261C2004.48 227.333 2001.41 227.333 1998.34 224.261L1984.51 210.437Z" fill="#294773" fill-opacity="0.25"/>
<path d="M1978.37 403.973C1974.27 399.875 1974.27 395.782 1978.37 391.685L1996.8 373.253C2000.9 369.155 2005 369.155 2009.09 373.253L2027.52 391.685C2031.61 395.782 2031.61 399.875 2027.52 403.973L2009.09 422.405C2005 426.502 2000.9 426.502 1996.8 422.405L1978.37 403.973Z" fill="#294773" fill-opacity="0.25"/>
<path d="M1972.22 597.509C1967.1 592.388 1967.1 587.269 1972.22 582.149L1995.26 559.109C2000.38 553.988 2005.5 553.988 2010.62 559.109L2033.66 582.149C2038.79 587.269 2038.79 592.388 2033.66 597.509L2010.62 620.549C2005.5 625.669 2000.38 625.669 1995.26 620.549L1972.22 597.509Z" fill="#294773" fill-opacity="0.25"/>
<path d="M1966.08 791.045C1959.94 784.901 1959.94 778.757 1966.08 772.613L1993.73 744.965C1999.87 738.821 2006.02 738.821 2012.16 744.965L2039.81 772.613C2045.95 778.757 2045.95 784.901 2039.81 791.045L2012.16 818.693C2006.02 824.837 1999.87 824.837 1993.73 818.693L1966.08 791.045Z" fill="#294773" fill-opacity="0.25"/>
<path d="M1959.94 984.581C1952.77 977.412 1952.77 970.246 1959.94 963.077L1992.19 930.821C1999.36 923.652 2006.53 923.652 2013.7 930.821L2045.95 963.077C2053.11 970.246 2053.11 977.412 2045.95 984.581L2013.7 1016.84C2006.53 1024.01 1999.36 1024.01 1992.19 1016.84L1959.94 984.581Z" fill="#294773" fill-opacity="0.25"/>
<path d="M1953.79 1178.12C1945.6 1169.93 1945.6 1161.73 1953.79 1153.54L1990.66 1116.68C1998.85 1108.49 2007.03 1108.49 2015.23 1116.68L2052.1 1153.54C2060.29 1161.73 2060.29 1169.93 2052.1 1178.12L2015.23 1214.98C2007.03 1223.17 1998.85 1223.17 1990.66 1214.98L1953.79 1178.12Z" fill="#294773" fill-opacity="0.25"/>
<path d="M1947.65 1371.65C1938.43 1362.44 1938.43 1353.22 1947.65 1344L1989.12 1302.53C1998.34 1293.32 2007.55 1293.32 2016.77 1302.53L2058.24 1344C2067.46 1353.22 2067.46 1362.44 2058.24 1371.65L2016.77 1413.12C2007.55 1422.34 1998.34 1422.34 1989.12 1413.12L1947.65 1371.65Z" fill="#294773" fill-opacity="0.25"/>
<path d="M1941.5 1565.19C1931.26 1554.95 1931.26 1544.71 1941.5 1534.47L1987.58 1488.39C1997.82 1478.15 2008.07 1478.15 2018.3 1488.39L2064.38 1534.47C2074.62 1544.71 2074.62 1554.95 2064.38 1565.19L2018.3 1611.27C2008.07 1621.51 1997.82 1621.51 1987.58 1611.27L1941.5 1565.19Z" fill="#294773" fill-opacity="0.25"/>
<path d="M1935.36 1758.72C1924.1 1747.46 1924.1 1736.2 1935.36 1724.93L1986.05 1674.24C1997.31 1662.98 2008.57 1662.98 2019.84 1674.24L2070.53 1724.93C2081.8 1736.2 2081.8 1747.46 2070.53 1758.72L2019.84 1809.41C2008.57 1820.68 1997.31 1820.68 1986.05 1809.41L1935.36 1758.72Z" fill="#294773" fill-opacity="0.25"/>
<path d="M1929.22 1952.26C1916.93 1939.97 1916.93 1927.68 1929.22 1915.4L1984.51 1860.1C1996.8 1847.81 2009.09 1847.81 2021.38 1860.1L2076.67 1915.4C2088.96 1927.68 2088.96 1939.97 2076.67 1952.26L2021.38 2007.56C2009.09 2019.84 1996.8 2019.84 1984.51 2007.56L1929.22 1952.26Z" fill="#294773" fill-opacity="0.25"/>
</svg>
